<svg xmlns="http://www.w3.org/2000/svg" xmlns:xlink="http://www.w3.org/1999/xlink" viewBox="0 0 851 316"><defs><style>.cls-1{fill:#fff;}.cls-2{fill:#eaeaea;}.cls-3,.cls-4,.cls-9{fill:none;}.cls-11,.cls-12,.cls-13,.cls-14,.cls-21,.cls-3,.cls-4,.cls-5,.cls-6,.cls-7{stroke:#000;}.cls-13,.cls-17,.cls-18,.cls-20,.cls-21,.cls-3,.cls-4,.cls-5,.cls-6,.cls-7{stroke-linecap:round;}.cls-11,.cls-12,.cls-13,.cls-17,.cls-18,.cls-20,.cls-21,.cls-3,.cls-4,.cls-5,.cls-6,.cls-7{stroke-linejoin:round;}.cls-21,.cls-3{stroke-width:2px;}.cls-5{stroke-width:1.41px;}.cls-6{stroke-width:1.26px;}.cls-8{fill:url(#linear-gradient);}.cls-10,.cls-9{stroke:#4d4d4d;}.cls-10,.cls-14,.cls-15,.cls-9{stroke-miterlimit:10;}.cls-9{stroke-width:5px;}.cls-10{stroke-width:5.2px;fill:url(#linear-gradient-2);}.cls-12{stroke-width:1.19px;}.cls-13{stroke-width:0.97px;}.cls-15{fill:#f2f2f2;}.cls-15,.cls-17,.cls-18,.cls-20{stroke:#e53935;}.cls-16{font-size:20px;font-family:PeachyKeenJF, PeachyKeenJF;}.cls-16,.cls-17,.cls-18,.cls-19,.cls-20{fill:#e53935;}.cls-18{stroke-width:1.2px;}.cls-20{stroke-width:1.28px;}</style><linearGradient id="linear-gradient" x1="607.14" y1="251.99" x2="607.14" y2="214.13" gradientUnits="userSpaceOnUse"><stop offset="0" stop-color="#666"/><stop offset="0.08" stop-color="#747474"/><stop offset="0.23" stop-color="#888"/><stop offset="0.37" stop-color="#959595"/><stop offset="0.51" stop-color="#999"/><stop offset="0.65" stop-color="#959595"/><stop offset="0.79" stop-color="#888"/><stop offset="0.93" stop-color="#747474"/><stop offset="1" stop-color="#666"/></linearGradient><linearGradient id="linear-gradient-2" x1="607.14" y1="251.99" x2="607.14" y2="251.99" gradientUnits="userSpaceOnUse"><stop offset="0" stop-color="#666"/><stop offset="0.03" stop-color="#707070"/><stop offset="0.1" stop-color="#828282"/><stop offset="0.18" stop-color="#8f8f8f"/><stop offset="0.29" stop-color="#979797"/><stop offset="0.51" stop-color="#999"/><stop offset="0.73" stop-color="#979797"/><stop offset="0.83" stop-color="#909090"/><stop offset="0.91" stop-color="#838383"/><stop offset="0.97" stop-color="#717171"/><stop offset="1" stop-color="#666"/></linearGradient></defs><title>idk-cover</title><g id="Layer_3" data-name="Layer 3"><rect class="cls-1" y="1" width="851" height="315"/><polygon class="cls-2" points="0 195.55 34.83 195.55 34.83 232.49 49.2 240.95 49.2 194.71 65.84 187.09 65.84 173.84 74.02 172.15 74.02 163.97 85.58 163.97 85.58 171.87 92.63 170.18 92.63 200.63 103.34 197.81 103.34 159.75 134.93 159.75 134.93 198.94 141.69 202.04 142.82 196.68 155.79 196.68 155.79 135.21 212.75 135.21 212.75 193.3 234.54 193.3 234.54 224.18 240.67 226.07 242.57 171.51 245.32 171.51 245.32 162.84 254.62 162.84 257.58 176.8 282.86 176.8 285.19 224.49 295.97 226.07 295.97 199.33 327.23 199.33 327.23 209.79 330.9 209.79 329.35 181.46 338.09 179.76 338.09 168.9 377.57 168.9 377.57 180.04 383.77 180.04 383.77 216.14 394.77 216.14 393.08 243.77 399.28 242.22 399.28 204.29 401.11 202.75 402.52 193.58 404.07 193.58 405.34 187.24 416.06 187.24 420.85 201.62 439.04 201.62 439.04 217.41 446.23 217.41 446.23 208.73 466.31 208.73 466.31 198.16 478.65 198.16 478.65 194 493.04 194 493.04 197.95 500.36 197.95 500.36 202.46 542.66 202.46 542.66 236.44 548.58 236.44 548.58 219.52 558.95 219.52 558.95 208.1 563.6 209.37 563.6 198.16 583.9 198.16 583.9 183.57 612.24 183.57 612.24 200.49 615.62 200.49 615.62 239.82 631.91 239.82 631.91 245.96 652.84 245.96 652.84 200.28 658.13 200.28 658.13 187.59 665.11 185.47 665.11 177.65 673.57 177.65 673.57 185.9 681.6 185.9 681.6 199.43 686.47 199.43 686.47 216.35 701.27 216.35 701.27 256.18 712.41 256.18 712.41 249.69 726.51 249.69 729.75 252.94 739.2 254.77 739.2 245.46 765.56 245.46 765.56 109.55 770.96 106.49 770.96 89.78 780.58 69.37 780.58 47.38 783.11 6.56 786.92 47.38 788.19 69.37 797.92 89.78 797.92 102.78 802.67 107.54 807.86 242.15 826.89 242.15 826.89 248.29 851 248.29 851 316 0 316 0 195.55"/></g><g id="Layer_1" data-name="Layer 1"><path class="cls-3" d="M607.14,28.3c1.32-6.4,78.69,127.4,133.73,213.08" transform="translate(0 1)"/><path class="cls-3" d="M607.14,28.3C605.09,23.4,517.64,168,464.95,247" transform="translate(0 1)"/><path d="M552.3,195.24a.71.71,0,0,1-.37.5,4.37,4.37,0,0,1-.54.3,8.91,8.91,0,0,1-1.15.46,6.15,6.15,0,0,1-2.42.28,21.51,21.51,0,0,1-2.4-.43c-.4-.08-.79-.16-1.19-.27a4.45,4.45,0,0,1-.6-.21.82.82,0,0,1-.52-.63,1,1,0,0,1,.46-.74,3,3,0,0,1,.59-.32,6.32,6.32,0,0,1,1.21-.36,11.54,11.54,0,0,1,2.45-.25,7.86,7.86,0,0,1,2.42.38,9.78,9.78,0,0,1,1.15.47,4.29,4.29,0,0,1,.54.3A.71.71,0,0,1,552.3,195.24Zm-.1,0c-.07-.35-.54-.48-.9-.55a6.15,6.15,0,0,0-1.17-.08l-2.32,0c-.77,0-1.54,0-2.3.11a10.71,10.71,0,0,0-1.1.19,3.71,3.71,0,0,0-.5.15,1.48,1.48,0,0,0-.26.15s.05.16.19.26a2,2,0,0,0,.49.26,4.66,4.66,0,0,0,1.13.27,11.76,11.76,0,0,0,2.35-.08,22.68,22.68,0,0,1,2.32-.07,6.59,6.59,0,0,0,1.17-.08C551.66,195.72,552.13,195.59,552.2,195.24Z" transform="translate(0 1)"/><ellipse class="cls-4" cx="646.13" cy="203.4" rx="1.91" ry="5.97"/><path class="cls-5" d="M588.72,250.8a35.33,35.33,0,0,0,2.05,14.38c1.56,3.19,3.38,5.69,5.6,7.1,1.1.47,3.28-.64,4.16-2.19l-.85-3.61,1.76,2.44c1.18.38,2.24-.88,2-2.31-3-5.69-7-5.38-7.39-7.28-1.16-4.51-1-10.21-1.94-10.78C591.21,245.73,589.56,247,588.72,250.8Z" transform="translate(0 1)"/><path class="cls-6" d="M617.11,254.27a26.78,26.78,0,0,1-1.93,12.08,14.71,14.71,0,0,1-5.26,6c-1,.39-3.28-.64-4.1-1.95l2.7-2.82-3.35,1.9c-1,.29-1.89-.66-1.92-1.9,2.81-4.78,7-4.16,7.38-5.76,1.09-3.79,1-9.35,1.92-9.83C615.29,249.58,616.31,251.06,617.11,254.27Z" transform="translate(0 1)"/><path class="cls-7" d="M601.79,26.87c1.65,3.13,3.33,6.06,5.36,6.58,4.24.06,6.13-2.16,5.35-7-.22-1.78-2.27-3.3-4.29-4.82L608,20.23h-2.51l-.06,1.43c1.84,2,3.74,4,3.83,5.18.22,1.59-.43,2.4-2.1,2.32Z" transform="translate(0 1)"/><line class="cls-3" x1="607" y1="16.87" x2="607.23" y2="1"/><polygon class="cls-8" points="803.57 251.99 410.71 251.99 425.5 214.13 788.57 214.13 803.57 251.99"/><line class="cls-9" x1="425.5" y1="216.7" x2="788.57" y2="216.7"/><line class="cls-10" x1="410.71" y1="251.99" x2="803.57" y2="251.99"/><path class="cls-11" d="M586.43,183.71h36.43L635.71,133q-32.14-13.71-64.29,0Z" transform="translate(0 1)"/><path class="cls-12" d="M643.91,169.4,625.17,175l3.29-13c2.41-2.56,3.43-4.06,5.48-4.49-2.39-.29-3.77-1.06-4.33-3.65l6.18-20.9C644.42,143.93,647,155.92,643.91,169.4Z" transform="translate(0 1)"/><path class="cls-12" d="M563.29,169.59l20.62,5.6-3.39-11.45c-2.41-2.56-5.2-5.58-7.25-6,2.39-.29,3.77-1.06,4.33-3.65l-6.18-20.9C562.78,144.12,560.21,156.11,563.29,169.59Z" transform="translate(0 1)"/><path class="cls-13" d="M622.86,190.33H587.07c-.95-.84-2.15-3.85,2-3.31-3.64,2-3.91-2.41-2.62-3.31h36.43c.45.38,1.68,3-2.19,2.91C623.59,184.09,624.33,189.93,622.86,190.33Z" transform="translate(0 1)"/><path class="cls-14" d="M587.07,190.33c-1.39,7.93-5.33,16.65-4.75,22.8,13.11,4.43,32.3,4.14,46.34,0,.78-5.3-3.92-14.16-5.8-22.8Z" transform="translate(0 1)"/><path class="cls-11" d="M616.64,127.12a149.66,149.66,0,0,0-25.17,0V122a92.27,92.27,0,0,1,25.17,0Z" transform="translate(0 1)"/><path class="cls-7" d="M593.49,117.71c-1.68-7.59-2.45-14.67,0-20.18,4.45-7.79,16.69-7.72,21.53,0,2.65,4.09,1.7,11,.37,18.18a20.12,20.12,0,0,1-1.1,3.83l-.85,2.12a92.3,92.3,0,0,0-18.76,0Z" transform="translate(0 1)"/><circle class="cls-15" cx="604.06" cy="157.77" r="16.62"/><text class="cls-16" transform="translate(588.68 165.09)">&lt;/&gt;</text><path class="cls-17" d="M616.7,107.61H591.92a8,8,0,0,1,0-5.32H616.7A11.31,11.31,0,0,1,616.7,107.61Z" transform="translate(0 1)"/><path class="cls-18" d="M607.77,105a3.35,3.35,0,0,1-3.14,3.47c-2.8,0-3.23-1.71-3.23-3.47s1-2.39,2.66-3.18C606.48,100.58,607.67,102.89,607.77,105Z" transform="translate(0 1)"/><path class="cls-19" d="M602.51,105.73c-.25.85,8.18,3.93,17.81,2.7,5.37-.68,7.71-2.88,13.72-2.87a53.9,53.9,0,0,1,8.67.83,6.42,6.42,0,0,1,.16-3.56c-1.78-1.85-6.64-1.24-9.24-1-6.4.49-8.16,1.95-13.69,3.21C610.25,107.2,602.73,105,602.51,105.73Z" transform="translate(0 1)"/><path class="cls-19" d="M602.57,105.75c0,.14.21.3.37.4a5.08,5.08,0,0,0,.56.3,10.62,10.62,0,0,0,1.19.47,20.18,20.18,0,0,0,2.48.65,35.41,35.41,0,0,0,5.08.6,44.32,44.32,0,0,0,10.11-.62c1.65-.33,3.27-.85,4.95-1.31a22.9,22.9,0,0,1,5.14-.85,58.64,58.64,0,0,1,10.32.72l-.31.37a4.54,4.54,0,0,1-.26-1.92,8.77,8.77,0,0,1,.31-1.87l.09.39a4.07,4.07,0,0,0-2.1-.9A13.05,13.05,0,0,0,638,102c-1.67,0-3.38.23-5.08.39a30.47,30.47,0,0,0-5,.91c-1.63.42-3.23,1-4.91,1.49a36,36,0,0,1-10.29,1.5,50.88,50.88,0,0,1-5.18-.27l-2.57-.27-1.28-.12-.64,0C602.92,105.63,602.64,105.64,602.57,105.75Zm-.12,0c.07-.16.22-.16.32-.19l.33,0,.65,0,1.29.09c.86.05,1.71.12,2.57.13a45.73,45.73,0,0,0,5.12-.17c1.7-.17,3.38-.4,5-.72s3.3-.75,4.92-1.25,3.25-1.07,4.95-1.51a31.22,31.22,0,0,1,5.18-.83c1.72-.12,3.43-.3,5.2-.25a14,14,0,0,1,2.65.28,4.71,4.71,0,0,1,2.49,1.26l.16.17-.07.22a5.63,5.63,0,0,0-.27,3.34l.15.47-.46-.1a44.59,44.59,0,0,0-5.07-.75,28.07,28.07,0,0,0-5.12-.08,20.36,20.36,0,0,0-5,1.1c-1.61.54-3.23,1.19-4.94,1.6a28.64,28.64,0,0,1-10.4.39,37.29,37.29,0,0,1-5.09-1.05c-.83-.25-1.66-.49-2.46-.8-.4-.16-.81-.31-1.19-.5a5.22,5.22,0,0,1-.57-.32C602.71,106.12,602.46,106,602.46,105.71Z" transform="translate(0 1)"/><path class="cls-19" d="M602.12,106.29c.32-.65,16,.29,20.76,6,.54.65,6.18,4.12,8.44,4.62,2.94.65,7.5-.22,7.5-.22-.89,2,1.91,2.92,1.91,2.92-.93,1.63-6.71,2.11-10.69.76-3.14-1.06-9.21-3.5-10.24-4.72C613.17,107.89,601.84,106.86,602.12,106.29Z" transform="translate(0 1)"/><path class="cls-19" d="M602.11,106.28a2.76,2.76,0,0,1,1.22-.19c.41,0,.82,0,1.23,0,.82,0,1.64.09,2.46.18q2.46.25,4.88.75a24.7,24.7,0,0,1,9.18,3.53,9.57,9.57,0,0,1,1.84,1.67,12.91,12.91,0,0,0,2,1.42,44.39,44.39,0,0,0,4.29,2.4,10.53,10.53,0,0,0,2.29.86,12.8,12.8,0,0,0,2.44.23,28.21,28.21,0,0,0,4.89-.47.07.07,0,0,1,.07.09,1.72,1.72,0,0,0-.15.93,1.66,1.66,0,0,0,.41.85,3.93,3.93,0,0,0,1.62,1h0a.08.08,0,0,1,0,.1v0a3.83,3.83,0,0,1-2.36,1.27,14.24,14.24,0,0,1-2.67.33,17.18,17.18,0,0,1-5.34-.62c-1.71-.55-3.37-1.2-5-1.88a36,36,0,0,1-4.84-2.34,3.93,3.93,0,0,1-1-.89q-.44-.5-.91-1a21.68,21.68,0,0,0-2-1.76,29.06,29.06,0,0,0-4.5-2.85,35.49,35.49,0,0,0-4.93-2.06c-.85-.28-1.7-.54-2.56-.78l-1.29-.36-.64-.19-.32-.11C602.27,106.44,602.11,106.43,602.11,106.28Zm0,0c.07.16.37.2.56.27l.65.18,1.3.33c.86.23,1.72.47,2.58.74a37.09,37.09,0,0,1,5,2,24.69,24.69,0,0,1,4.58,2.82,22,22,0,0,1,2,1.79q.48.48.92,1a3.59,3.59,0,0,0,1,.84,35.78,35.78,0,0,0,4.8,2.32c1.65.68,3.32,1.33,5,1.87a17.62,17.62,0,0,0,5.26.66,14,14,0,0,0,2.64-.29,3.69,3.69,0,0,0,2.26-1.17l0,.12a4.08,4.08,0,0,1-1.68-1.09,1.8,1.8,0,0,1-.43-.92,1.86,1.86,0,0,1,.17-1l.07.09a29.5,29.5,0,0,1-4.92.44,12.91,12.91,0,0,1-2.46-.2,10.58,10.58,0,0,1-2.32-.85,44.53,44.53,0,0,1-4.32-2.38,12.8,12.8,0,0,1-2-1.45,9.42,9.42,0,0,0-1.82-1.61,18.91,18.91,0,0,0-4.39-2.15,37.45,37.45,0,0,0-4.72-1.37,47.87,47.87,0,0,0-4.85-.83c-.82-.1-1.63-.17-2.45-.22-.41,0-.82,0-1.23,0A3,3,0,0,0,602.13,106.29Z" transform="translate(0 1)"/><rect x="536.6" y="204.01" width="22.43" height="10.12"/><path d="M559,203c-2,.09-3.87.17-5.75.22s-3.74.1-5.59.13-3.68,0-5.52,0l-5.53-.19.2-.2c0,1.69-.07,3.37,0,5.06s.06,3.37.11,5.06l-.27-.27c3.74-.15,7.48-.19,11.21-.23s7.48,0,11.21.07l-.44.44c0-1.63.09-3.27.17-4.95Zm.07-.07.23,5c.08,1.7.14,3.43.17,5.17a.43.43,0,0,1-.42.43h0c-3.74.1-7.48.12-11.21.07s-7.48-.09-11.21-.23h0a.27.27,0,0,1-.25-.27c.05-1.69.1-3.37.11-5.06s0-3.37,0-5.06a.2.2,0,0,1,.19-.2h0l5.68-.19c1.9,0,3.81-.05,5.7,0s3.78.06,5.62.13S557.29,202.88,559.07,203Z" transform="translate(0 1)"/><path d="M559,203H536.6c0-6.51,5.49-7.52,11.22-7.52C554.17,195.49,559,196.12,559,203Z" transform="translate(0 1)"/><path d="M559.07,203c-1.76.12-3.59.19-5.44.26s-3.74.11-5.64.12-3.83-.07-5.73-.14-3.78-.14-5.66-.11a.16.16,0,0,1-.16-.16h0a8.73,8.73,0,0,1,.8-3.88,6.21,6.21,0,0,1,2.9-2.79,12.4,12.4,0,0,1,3.85-1.12,29.24,29.24,0,0,1,3.94-.27,31.84,31.84,0,0,1,3.94.19,11.91,11.91,0,0,1,3.89,1,6.34,6.34,0,0,1,1.69,1.19,5.77,5.77,0,0,1,1.11,1.72A8.5,8.5,0,0,1,559.07,203ZM559,203a10.29,10.29,0,0,0-.94-3.64A5.13,5.13,0,0,0,555.4,197c-2.29-.92-4.91-.87-7.47-.93a19,19,0,0,0-7.45,1,5.77,5.77,0,0,0-2.79,2.32,7.18,7.18,0,0,0-.93,3.63l-.16-.16c1.86,0,3.72,0,5.56-.11s3.65-.16,5.49-.14,3.69.05,5.58.12S557,202.86,559,203Z" transform="translate(0 1)"/><rect class="cls-7" x="635.71" y="193.96" width="10.21" height="20.17"/><path class="cls-7" d="M640.82,193l-5.1.06V193a5.11,5.11,0,0,1,10.21,0Z" transform="translate(0 1)"/><path class="cls-20" d="M606,101.77c-1.08,2.07-4.46,3.13-3.86,5.84l.08-1.75c.12,1.82,2.42.44,4.88-.3" transform="translate(0 1)"/><path class="cls-3" d="M607.14,28.3c1.32-6.4,91.72,139.9,146.76,225.59" transform="translate(0 1)"/><path class="cls-3" d="M607.14,28.3c-2.06-4.9-98.54,146.61-151.23,225.59" transform="translate(0 1)"/><rect class="cls-21" x="604.75" y="15.72" width="4.49" height="2.31"/><rect class="cls-11" x="602.24" y="18.68" width="9.51" height="2.85"/></g></svg>