<svg id="Layer_1" data-name="Layer 1" xmlns="http://www.w3.org/2000/svg" viewBox="0 0 90 90"><defs><style>.cls-1{fill:#ff4e4a;}.cls-2{fill:#91fff4;stroke:#91fff4;}.cls-2,.cls-3{stroke-miterlimit:10;stroke-width:0.25px;}.cls-3{fill:#bebfbf;stroke:#bebfbf;}.cls-4{fill:#fff;}</style></defs><title>idk-plaid-logo</title><rect class="cls-1" width="90" height="90"/><line class="cls-2" x1="10" x2="10" y2="90"/><line class="cls-2" x1="20" x2="20" y2="90"/><line class="cls-2" x1="18" x2="18" y2="90"/><line class="cls-2" x1="16" x2="16" y2="90"/><line class="cls-2" x1="14" x2="14" y2="90"/><line class="cls-2" x1="12" x2="12" y2="90"/><line class="cls-2" x1="30" x2="30" y2="90"/><line class="cls-2" x1="40" x2="40" y2="90"/><line class="cls-2" x1="38" x2="38" y2="90"/><line class="cls-2" x1="36" x2="36" y2="90"/><line class="cls-2" x1="34" x2="34" y2="90"/><line class="cls-2" x1="32" x2="32" y2="90"/><line class="cls-2" x1="50" x2="50" y2="90"/><line class="cls-2" x1="60" x2="60" y2="90"/><line class="cls-2" x1="58" x2="58" y2="90"/><line class="cls-2" x1="56" x2="56" y2="90"/><line class="cls-2" x1="54" x2="54" y2="90"/><line class="cls-2" x1="52" x2="52" y2="90"/><line class="cls-2" x1="70" x2="70" y2="90"/><line class="cls-2" x1="80" x2="80" y2="90"/><line class="cls-2" x1="78" x2="78" y2="90"/><line class="cls-2" x1="76" x2="76" y2="90"/><line class="cls-2" x1="74" x2="74" y2="90"/><line class="cls-2" x1="72" x2="72" y2="90"/><line class="cls-3" y1="20" x2="90" y2="20"/><line class="cls-3" y1="10" x2="90" y2="10"/><line class="cls-3" y1="12" x2="90" y2="12"/><line class="cls-3" y1="14" x2="90" y2="14"/><line class="cls-3" y1="16" x2="90" y2="16"/><line class="cls-3" y1="18" x2="90" y2="18"/><line class="cls-3" y1="40" x2="90" y2="40"/><line class="cls-3" y1="30" x2="90" y2="30"/><line class="cls-3" y1="32" x2="90" y2="32"/><line class="cls-3" y1="34" x2="90" y2="34"/><line class="cls-3" y1="36" x2="90" y2="36"/><line class="cls-3" y1="38" x2="90" y2="38"/><line class="cls-3" y1="60" x2="90" y2="60"/><line class="cls-3" y1="50" x2="90" y2="50"/><line class="cls-3" y1="52" x2="90" y2="52"/><line class="cls-3" y1="54" x2="90" y2="54"/><line class="cls-3" y1="56" x2="90" y2="56"/><line class="cls-3" y1="58" x2="90" y2="58"/><line class="cls-3" y1="80" x2="90" y2="80"/><line class="cls-3" y1="70" x2="90" y2="70"/><line class="cls-3" y1="72" x2="90" y2="72"/><line class="cls-3" y1="74" x2="90" y2="74"/><line class="cls-3" y1="76" x2="90" y2="76"/><line class="cls-3" y1="78" x2="90" y2="78"/><path class="cls-4" d="M16.91,60a13.75,13.75,0,0,1-1.73.3,18.25,18.25,0,0,1-2.32.15,10.45,10.45,0,0,1-2-.17,3.59,3.59,0,0,1-1.47-.62,2.7,2.7,0,0,1-.9-1.25,6.11,6.11,0,0,1-.3-2.1V29.88l1.75-.28a16,16,0,0,1,2.3-.17,10.46,10.46,0,0,1,2,.17,3.61,3.61,0,0,1,1.47.63,2.7,2.7,0,0,1,.9,1.25,6.11,6.11,0,0,1,.3,2.1Z"/><path class="cls-4" d="M34.91,61q-.85,0-2,0t-2.27-.2q-1.18-.15-2.35-.37a11.73,11.73,0,0,1-2.17-.62,3.72,3.72,0,0,1-2.75-3.65V32.73A2.2,2.2,0,0,1,24,31.1a4.11,4.11,0,0,1,1.57-.92,21,21,0,0,1,4.55-.92q2.4-.23,4.3-.23a24.66,24.66,0,0,1,7.08.95,14.57,14.57,0,0,1,5.45,2.93,13.19,13.19,0,0,1,3.53,5A18.4,18.4,0,0,1,51.71,45a18.58,18.58,0,0,1-1.2,7,13.47,13.47,0,0,1-3.42,5,14.33,14.33,0,0,1-5.33,3A22.22,22.22,0,0,1,34.91,61Zm-2.8-7.3q.55.1,1.35.17t1.5.08a9.37,9.37,0,0,0,3.13-.5,6.27,6.27,0,0,0,2.45-1.55,7.17,7.17,0,0,0,1.6-2.73,12.46,12.46,0,0,0,.57-4q0-4.5-2.1-6.78A7.26,7.26,0,0,0,35,36.08q-.7,0-1.43.05t-1.47.15Z"/><path class="cls-4" d="M65.51,48.93V60a13.72,13.72,0,0,1-1.75.3,18.82,18.82,0,0,1-2.35.15,10.45,10.45,0,0,1-2-.17,3.6,3.6,0,0,1-1.47-.62,2.7,2.7,0,0,1-.9-1.25,6.12,6.12,0,0,1-.3-2.1V29.88l1.75-.28a16,16,0,0,1,2.3-.17,10.46,10.46,0,0,1,2,.17,3.6,3.6,0,0,1,1.47.63,2.7,2.7,0,0,1,.9,1.25,6.1,6.1,0,0,1,.3,2.1v8l10.4-12q3.4,0,4.88,1.27a3.88,3.88,0,0,1,1.47,3,4.9,4.9,0,0,1-.65,2.45,12.76,12.76,0,0,1-2.1,2.6l-6.25,6.25q1.25,1.4,2.63,2.9L78.53,51l2.55,2.72L83.21,56a4.54,4.54,0,0,1-.4,2,4.46,4.46,0,0,1-1.08,1.45,4.56,4.56,0,0,1-1.53.9,5.37,5.37,0,0,1-1.8.3,5.25,5.25,0,0,1-3.35-1,17.84,17.84,0,0,1-2.5-2.42Z"/></svg>