<svg id="Layer_1" data-name="Layer 1" xmlns="http://www.w3.org/2000/svg" viewBox="0 0 90 90"><defs><style>.cls-1{fill:#ff4e4a;}.cls-2{opacity:0.6;}.cls-3{fill:#91fff4;stroke:#91fff4;}.cls-3,.cls-4{stroke-miterlimit:10;stroke-width:0.25px;}.cls-4{fill:#bebfbf;stroke:#bebfbf;}</style></defs><title>idk-plaid</title><rect class="cls-1" width="90" height="90"/><g class="cls-2"><line class="cls-3" x1="10" x2="10" y2="90"/><line class="cls-3" x1="20" x2="20" y2="90"/><line class="cls-3" x1="18" x2="18" y2="90"/><line class="cls-3" x1="16" x2="16" y2="90"/><line class="cls-3" x1="14" x2="14" y2="90"/><line class="cls-3" x1="12" x2="12" y2="90"/><line class="cls-3" x1="30" x2="30" y2="90"/><line class="cls-3" x1="40" x2="40" y2="90"/><line class="cls-3" x1="38" x2="38" y2="90"/><line class="cls-3" x1="36" x2="36" y2="90"/><line class="cls-3" x1="34" x2="34" y2="90"/><line class="cls-3" x1="32" x2="32" y2="90"/><line class="cls-3" x1="50" x2="50" y2="90"/><line class="cls-3" x1="60" x2="60" y2="90"/><line class="cls-3" x1="58" x2="58" y2="90"/><line class="cls-3" x1="56" x2="56" y2="90"/><line class="cls-3" x1="54" x2="54" y2="90"/><line class="cls-3" x1="52" x2="52" y2="90"/><line class="cls-3" x1="70" x2="70" y2="90"/><line class="cls-3" x1="80" x2="80" y2="90"/><line class="cls-3" x1="78" x2="78" y2="90"/><line class="cls-3" x1="76" x2="76" y2="90"/><line class="cls-3" x1="74" x2="74" y2="90"/><line class="cls-3" x1="72" x2="72" y2="90"/><line class="cls-4" y1="20" x2="90" y2="20"/><line class="cls-4" y1="10" x2="90" y2="10"/><line class="cls-4" y1="12" x2="90" y2="12"/><line class="cls-4" y1="14" x2="90" y2="14"/><line class="cls-4" y1="16" x2="90" y2="16"/><line class="cls-4" y1="18" x2="90" y2="18"/><line class="cls-4" y1="40" x2="90" y2="40"/><line class="cls-4" y1="30" x2="90" y2="30"/><line class="cls-4" y1="32" x2="90" y2="32"/><line class="cls-4" y1="34" x2="90" y2="34"/><line class="cls-4" y1="36" x2="90" y2="36"/><line class="cls-4" y1="38" x2="90" y2="38"/><line class="cls-4" y1="60" x2="90" y2="60"/><line class="cls-4" y1="50" x2="90" y2="50"/><line class="cls-4" y1="52" x2="90" y2="52"/><line class="cls-4" y1="54" x2="90" y2="54"/><line class="cls-4" y1="56" x2="90" y2="56"/><line class="cls-4" y1="58" x2="90" y2="58"/><line class="cls-4" y1="80" x2="90" y2="80"/><line class="cls-4" y1="70" x2="90" y2="70"/><line class="cls-4" y1="72" x2="90" y2="72"/><line class="cls-4" y1="74" x2="90" y2="74"/><line class="cls-4" y1="76" x2="90" y2="76"/><line class="cls-4" y1="78" x2="90" y2="78"/></g></svg>